<?xml version="1.0" encoding="UTF-8" standalone="no"?>
<svg
   xmlns:osb="http://www.openswatchbook.org/uri/2009/osb"
   xmlns:dc="http://purl.org/dc/elements/1.1/"
   xmlns:cc="http://creativecommons.org/ns#"
   xmlns:rdf="http://www.w3.org/1999/02/22-rdf-syntax-ns#"
   xmlns:svg="http://www.w3.org/2000/svg"
   xmlns="http://www.w3.org/2000/svg"
   xmlns:xlink="http://www.w3.org/1999/xlink"
   xmlns:sodipodi="http://sodipodi.sourceforge.net/DTD/sodipodi-0.dtd"
   xmlns:inkscape="http://www.inkscape.org/namespaces/inkscape"
   id="Layer_1"
   data-name="Layer 1"
   viewBox="0 0 372.634 428.06863"
   version="1.1"
   sodipodi:docname="Icon.svg"
   inkscape:version="0.92.5 (2060ec1f9f, 2020-04-08)"
   width="372.634"
   height="428.06863">
  <metadata
     id="metadata15">
    <rdf:RDF>
      <cc:Work
         rdf:about="">
        <dc:format>image/svg+xml</dc:format>
        <dc:type
           rdf:resource="http://purl.org/dc/dcmitype/StillImage" />
        <dc:title>RedHat-Logo-A-Red</dc:title>
      </cc:Work>
    </rdf:RDF>
  </metadata>
  <sodipodi:namedview
     pagecolor="#ffffff"
     bordercolor="#666666"
     borderopacity="1"
     objecttolerance="10"
     gridtolerance="10"
     guidetolerance="10"
     inkscape:pageopacity="0"
     inkscape:pageshadow="2"
     inkscape:window-width="1910"
     inkscape:window-height="1046"
     id="namedview13"
     showgrid="false"
     inkscape:zoom="1"
     inkscape:cx="252.61826"
     inkscape:cy="179.32594"
     inkscape:window-x="1920"
     inkscape:window-y="0"
     inkscape:window-maximized="0"
     inkscape:current-layer="g931"
     fit-margin-top="4"
     fit-margin-left="4"
     fit-margin-right="4"
     fit-margin-bottom="4" />
  <defs
     id="defs4">
    <linearGradient
       inkscape:collect="always"
       id="DarkRed">
      <stop
         style="stop-color:#a30000;stop-opacity:1"
         offset="0"
         id="stop957" />
      <stop
         style="stop-color:#8d0000;stop-opacity:1"
         offset="1"
         id="stop959" />
    </linearGradient>
    <linearGradient
       id="LightRed"
       osb:paint="gradient">
      <stop
         style="stop-color:#000000;stop-opacity:1;"
         offset="0"
         id="stop924" />
      <stop
         style="stop-color:#000000;stop-opacity:0;"
         offset="1"
         id="stop926" />
    </linearGradient>
    <style
       id="style2">.cls-1{fill:#e00;}</style>
    <linearGradient
       inkscape:collect="always"
       xlink:href="#DarkRed"
       id="linearGradient950"
       gradientUnits="userSpaceOnUse"
       x1="241.04924"
       y1="1030.5317"
       x2="243.03528"
       y2="1031.0376"
       gradientTransform="translate(-47.632846,-815.48592)" />
    <clipPath
       id="g61d8b7f67c_1_13.2">
      <path
         style="clip-rule:evenodd"
         inkscape:connector-curvature="0"
         d="M 0,0 H 384 V 266 H 0 Z"
         id="path1087" />
    </clipPath>
    <style
       id="style5297">.fb877d48-bdbd-4dd7-bff9-d5d084133d30{fill:#e00;}</style>
    <linearGradient
       inkscape:collect="always"
       xlink:href="#DarkRed"
       id="linearGradient5322"
       x1="182.5"
       y1="225.34988"
       x2="182.84375"
       y2="225.56863"
       gradientUnits="userSpaceOnUse" />
  </defs>
  <title
     id="title6">RedHat-Logo-A-Red</title>
  <flowRoot
     xml:space="preserve"
     id="flowRoot869"
     style="fill:black;fill-opacity:1;stroke:none;font-family:Overpass;font-style:normal;font-weight:normal;font-size:13.33333333px;line-height:1.25;letter-spacing:0px;word-spacing:0px;-inkscape-font-specification:Overpass;font-stretch:normal;font-variant:normal;"><flowRegion
       id="flowRegion871"
       style="-inkscape-font-specification:Overpass;font-family:Overpass;font-weight:normal;font-style:normal;font-stretch:normal;font-variant:normal;"><rect
         id="rect873"
         width="274.74133"
         height="77.644386"
         x="51.499779"
         y="209.19458"
         style="-inkscape-font-specification:Overpass;font-family:Overpass;font-weight:normal;font-style:normal;font-stretch:normal;font-variant:normal;" /></flowRegion><flowPara
       id="flowPara875" /></flowRoot>  <g
     id="g931"
     inkscape:export-xdpi="210.62"
     inkscape:export-ydpi="210.62">
    <ellipse
       style="opacity:1;fill:url(#linearGradient5322);fill-opacity:1;stroke:#000000;stroke-width:0.60900003;stroke-linecap:round;stroke-linejoin:round;stroke-miterlimit:4;stroke-dasharray:none;stroke-opacity:1;paint-order:normal"
       id="path5312"
       cx="186.12541"
       cy="227.02284"
       rx="180.05611"
       ry="170.69926" />
    <path
       style="fill:#000000;fill-opacity:0;fill-rule:evenodd;stroke:none;stroke-linecap:square;stroke-miterlimit:10"
       inkscape:connector-curvature="0"
       d="M 52.913395,169.41458 H 317.1339 V 286.39097 H 52.913395 Z"
       id="path1053" />
    <path
       style="fill:#000000;fill-opacity:0;fill-rule:evenodd;stroke:none;stroke-linecap:square;stroke-miterlimit:10"
       inkscape:connector-curvature="0"
       d="m 251.38981,77.85813 v 0 c 40.15478,18.80807 70.10321,54.20205 82.00507,96.91615 11.90185,42.71409 4.57208,88.49529 -20.07044,125.35849 l -126.45209,-84.5314 z"
       id="path1061" />
    <path
       style="fill:#000000;fill-opacity:0;fill-rule:evenodd;stroke:none;stroke-linecap:square;stroke-miterlimit:10"
       inkscape:connector-curvature="0"
       d="m 251.38981,77.85813 v 0 c 40.15478,18.80807 70.10321,54.20205 82.00507,96.91615 11.90185,42.71409 4.57208,88.49529 -20.07044,125.35849"
       id="path1063" />
    <path
       style="fill:#000000;fill-opacity:0;fill-rule:evenodd;stroke:none;stroke-linecap:square;stroke-miterlimit:10"
       inkscape:connector-curvature="0"
       d="m 56.000578,293.16217 v 0 c -20.896793,-35.272 -26.672613,-77.4853 -16.018583,-117.07425 10.65399,-39.58893 36.835843,-73.2019 72.612665,-93.22215 l 74.2883,132.7555 z"
       id="path1069" />
    <path
       style="fill:#000000;fill-opacity:0;fill-rule:evenodd;stroke:none;stroke-linecap:square;stroke-miterlimit:10"
       inkscape:connector-curvature="0"
       d="m 56.000578,293.16217 v 0 c -20.896793,-35.272 -26.672613,-77.4853 -16.018583,-117.07425 10.65399,-39.58893 36.835843,-73.2019 72.612665,-93.22215"
       id="path1071" />
    <path
       style="fill:#000000;fill-opacity:0;fill-rule:evenodd;stroke:none;stroke-linecap:square;stroke-miterlimit:10"
       inkscape:connector-curvature="0"
       d="m 293.77708,323.82517 v 0 c -29.16223,28.8106 -68.71854,44.6313 -109.70535,43.8769 -40.98682,-0.7543 -79.9342,-18.0197 -108.016602,-47.8839 L 186.87077,215.61407 Z"
       id="path1077" />
    <path
       style="fill:#000000;fill-opacity:0;fill-rule:evenodd;stroke:none;stroke-linecap:square;stroke-miterlimit:10"
       inkscape:connector-curvature="0"
       d="m 293.77708,323.82517 v 0 c -29.16223,28.8106 -68.71854,44.6313 -109.70535,43.8769 -40.98682,-0.7543 -79.9342,-18.0197 -108.016602,-47.8839"
       id="path1079" />
    <path
       style="fill:#000000;fill-opacity:0;fill-rule:evenodd;stroke:none;stroke-width:2.0640018;stroke-linecap:square;stroke-miterlimit:10"
       inkscape:connector-curvature="0"
       d="M 18.250372,102.7442 H 353.67791 V 318.51837 H 18.250372 Z"
       id="path1085" />
    <path
       style="fill:#000000;fill-opacity:0;fill-rule:evenodd;stroke:none;stroke-width:2.0640018;stroke-linecap:square;stroke-miterlimit:10"
       inkscape:connector-curvature="0"
       d="M 137.93393,179.18228 H 343.41342 V 240.51285 H 137.93393 Z"
       id="path1094" />
    <path
       id="path5303"
       d="M 192.06053,258.80252 H 112.76306 A 44.60477,44.60477 0 0 1 112.76306,169.59315 48.082451,48.082451 0 0 1 120.41499,170.28862 6.5211257,6.5211257 0 0 0 127.28368,167.07028 61.472505,61.472505 0 0 1 242.05494,190.72106 6.6447356,6.6447356 0 1 0 255.27139,189.33112 74.51476,74.51476 0 0 0 118.23993,156.8103 H 112.76306 A 57.648215,57.648215 0 0 0 112.76306,272.10673 H 192.06053 A 6.52202,6.52202 0 1 0 192.06053,259.06269 Z M 276.57428,248.19486 A 6.173334,6.173334 0 0 0 279.0085,248.71566 6.5211257,6.5211257 0 0 0 283.6165,246.8036 6.173334,6.173334 0 0 0 285.52934,242.19577 8.6948402,8.6948402 0 0 0 285.09344,239.6739 7.0428151,7.0428151 0 0 0 283.6165,237.5869 6.6950237,6.6950237 0 0 0 274.39952,237.5869 6.5211257,6.5211257 0 0 0 274.39952,246.8036 5.8255392,5.8255392 0 0 0 276.57428,248.19486 Z M 305.09284,209.58926 H 218.14644 A 6.6080731,6.6080731 0 0 0 211.62308,216.11262 V 303.05903 A 6.5211257,6.5211257 0 0 0 218.14644,309.58107 H 305.09284 A 6.4341798,6.4341798 0 0 0 311.61488,303.05903 V 216.11262 A 6.5211257,6.5211257 0 0 0 305.09284,209.58926 Z M 298.57272,296.53891 H 224.66537 V 222.63155 H 298.74567 Z M 259.18541,248.19486 A 5.8255392,5.8255392 0 0 0 261.61903,248.71566 6.2602808,6.2602808 0 0 0 264.13971,248.19486 5.4777466,5.4777466 0 0 0 266.2265,246.8036 6.173334,6.173334 0 0 0 268.13874,242.19577 5.7385904,5.7385904 0 0 0 267.70439,239.76203 6.4341798,6.4341798 0 0 0 266.2265,237.5869 5.8255392,5.8255392 0 0 0 264.13971,236.19673 6.173334,6.173334 0 0 0 259.18541,236.19673 5.9994341,5.9994341 0 0 0 255.62079,239.76203 5.8255392,5.8255392 0 0 0 255.09783,242.19577 6.5211257,6.5211257 0 0 0 257.01007,246.8036 5.8255392,5.8255392 0 0 0 259.18541,248.19486 Z"
       class="fb877d48-bdbd-4dd7-bff9-d5d084133d30"
       inkscape:connector-curvature="0"
       style="fill:#ffffff;fill-opacity:1;stroke-width:8.69483757" />
  </g>
</svg>
