<?xml version="1.0" encoding="UTF-8" standalone="no"?>
<svg
   xmlns:osb="http://www.openswatchbook.org/uri/2009/osb"
   xmlns:dc="http://purl.org/dc/elements/1.1/"
   xmlns:cc="http://creativecommons.org/ns#"
   xmlns:rdf="http://www.w3.org/1999/02/22-rdf-syntax-ns#"
   xmlns:svg="http://www.w3.org/2000/svg"
   xmlns="http://www.w3.org/2000/svg"
   xmlns:xlink="http://www.w3.org/1999/xlink"
   xmlns:sodipodi="http://sodipodi.sourceforge.net/DTD/sodipodi-0.dtd"
   xmlns:inkscape="http://www.inkscape.org/namespaces/inkscape"
   id="Layer_1"
   data-name="Layer 1"
   viewBox="0 0 368.72122 350.00753"
   version="1.1"
   sodipodi:docname="Logo.svg"
   inkscape:version="0.92.5 (2060ec1f9f, 2020-04-08)"
   width="368.72122"
   height="350.00754">
  <metadata
     id="metadata15">
    <rdf:RDF>
      <cc:Work
         rdf:about="">
        <dc:format>image/svg+xml</dc:format>
        <dc:type
           rdf:resource="http://purl.org/dc/dcmitype/StillImage" />
        <dc:title>RedHat-Logo-A-Red</dc:title>
      </cc:Work>
    </rdf:RDF>
  </metadata>
  <sodipodi:namedview
     pagecolor="#ffffff"
     bordercolor="#666666"
     borderopacity="1"
     objecttolerance="10"
     gridtolerance="10"
     guidetolerance="10"
     inkscape:pageopacity="0"
     inkscape:pageshadow="2"
     inkscape:window-width="1910"
     inkscape:window-height="1046"
     id="namedview13"
     showgrid="false"
     inkscape:zoom="1"
     inkscape:cx="285.66187"
     inkscape:cy="153.28391"
     inkscape:window-x="1920"
     inkscape:window-y="0"
     inkscape:window-maximized="0"
     inkscape:current-layer="g931"
     fit-margin-top="4"
     fit-margin-left="4"
     fit-margin-right="4"
     fit-margin-bottom="4" />
  <defs
     id="defs4">
    <linearGradient
       inkscape:collect="always"
       id="DarkRed">
      <stop
         style="stop-color:#a30000;stop-opacity:1"
         offset="0"
         id="stop957" />
      <stop
         style="stop-color:#8d0000;stop-opacity:1"
         offset="1"
         id="stop959" />
    </linearGradient>
    <linearGradient
       id="LightRed"
       osb:paint="gradient">
      <stop
         style="stop-color:#000000;stop-opacity:1;"
         offset="0"
         id="stop924" />
      <stop
         style="stop-color:#000000;stop-opacity:0;"
         offset="1"
         id="stop926" />
    </linearGradient>
    <style
       id="style2">.cls-1{fill:#e00;}</style>
    <linearGradient
       inkscape:collect="always"
       xlink:href="#DarkRed"
       id="linearGradient950"
       gradientUnits="userSpaceOnUse"
       x1="241.04924"
       y1="1030.5317"
       x2="243.03528"
       y2="1031.0376"
       gradientTransform="translate(-47.632846,-815.48592)" />
    <clipPath
       id="g61d8b7f67c_1_13.2">
      <path
         style="clip-rule:evenodd"
         inkscape:connector-curvature="0"
         d="M 0,0 H 384 V 266 H 0 Z"
         id="path1087" />
    </clipPath>
    <style
       id="style5297">.fb877d48-bdbd-4dd7-bff9-d5d084133d30{fill:#e00;}</style>
    <linearGradient
       inkscape:collect="always"
       xlink:href="#DarkRed"
       id="linearGradient5322"
       x1="182.5"
       y1="225.34988"
       x2="182.84375"
       y2="225.56863"
       gradientUnits="userSpaceOnUse"
       gradientTransform="translate(0.19158936)" />
  </defs>
  <title
     id="title6">RedHat-Logo-A-Red</title>
  <flowRoot
     xml:space="preserve"
     id="flowRoot869"
     style="font-style:normal;font-variant:normal;font-weight:normal;font-stretch:normal;font-size:13.33333302px;line-height:1.25;font-family:Overpass;-inkscape-font-specification:Overpass;letter-spacing:0px;word-spacing:0px;fill:#000000;fill-opacity:1;stroke:none"
     transform="translate(-1.9563948,-52.019078)"><flowRegion
       id="flowRegion871"
       style="font-style:normal;font-variant:normal;font-weight:normal;font-stretch:normal;font-family:Overpass;-inkscape-font-specification:Overpass"><rect
         id="rect873"
         width="274.74133"
         height="77.644386"
         x="51.499779"
         y="209.19458"
         style="font-style:normal;font-variant:normal;font-weight:normal;font-stretch:normal;font-family:Overpass;-inkscape-font-specification:Overpass" /></flowRegion><flowPara
       id="flowPara875" /></flowRoot>  <g
     id="g931"
     inkscape:export-xdpi="210.62"
     inkscape:export-ydpi="210.62"
     transform="translate(-1.9563948,-52.019078)">
    <ellipse
       style="opacity:1;fill:url(#linearGradient5322);fill-opacity:1;stroke:#000000;stroke-width:0.60900003;stroke-linecap:round;stroke-linejoin:round;stroke-miterlimit:4;stroke-dasharray:none;stroke-opacity:1;paint-order:normal"
       id="path5312"
       cx="186.317"
       cy="227.02284"
       rx="180.05611"
       ry="170.69926" />
    <path
       style="fill:#000000;fill-opacity:0;fill-rule:evenodd;stroke:none;stroke-linecap:square;stroke-miterlimit:10"
       inkscape:connector-curvature="0"
       d="M 251.38981,77.85813 V 77.85813 C 291.54459,96.6662 321.49302,132.06018 333.39488,174.77428 345.29673,217.48837 337.96696,263.26957 313.32444,300.13277 L 186.87235,215.60137 Z"
       id="path1061" />
    <path
       style="fill:#000000;fill-opacity:0;fill-rule:evenodd;stroke:none;stroke-linecap:square;stroke-miterlimit:10"
       inkscape:connector-curvature="0"
       d="M 251.38981,77.85813 V 77.85813 C 291.54459,96.6662 321.49302,132.06018 333.39488,174.77428 345.29673,217.48837 337.96696,263.26957 313.32444,300.13277"
       id="path1063" />
    <path
       style="fill:#000000;fill-opacity:0;fill-rule:evenodd;stroke:none;stroke-linecap:square;stroke-miterlimit:10"
       inkscape:connector-curvature="0"
       d="M 56.000578,293.16217 V 293.16217 C 35.103785,257.89017 29.327965,215.67687 39.981995,176.08792 50.635985,136.49899 76.817838,102.88602 112.59466,82.86577 L 186.88296,215.62127 Z"
       id="path1069" />
    <path
       style="fill:#000000;fill-opacity:0;fill-rule:evenodd;stroke:none;stroke-linecap:square;stroke-miterlimit:10"
       inkscape:connector-curvature="0"
       d="M 56.000578,293.16217 V 293.16217 C 35.103785,257.89017 29.327965,215.67687 39.981995,176.08792 50.635985,136.49899 76.817838,102.88602 112.59466,82.86577"
       id="path1071" />
    <path
       style="fill:#000000;fill-opacity:0;fill-rule:evenodd;stroke:none;stroke-width:2.0640018;stroke-linecap:square;stroke-miterlimit:10"
       inkscape:connector-curvature="0"
       d="M 18.603237,119.13576 H 354.03077 V 334.90993 H 18.603237 Z"
       id="path1085" />
    <g
       id="g5421"
       transform="translate(-3.6683962,-23.972238)">
      <path
         id="path1053"
         d="M 52.913395,169.41458 H 317.1339 V 286.39097 H 52.913395 Z"
         inkscape:connector-curvature="0"
         style="fill:#000000;fill-opacity:0;fill-rule:evenodd;stroke:none;stroke-linecap:square;stroke-miterlimit:10" />
      <path
         id="path1077"
         d="M 293.77708,323.82517 V 323.82517 C 264.61485,352.63577 225.05854,368.45647 184.07173,367.70207 143.08491,366.94777 104.13753,349.68237 76.055128,319.81817 L 186.87077,215.61407 Z"
         inkscape:connector-curvature="0"
         style="fill:#000000;fill-opacity:0;fill-rule:evenodd;stroke:none;stroke-linecap:square;stroke-miterlimit:10" />
      <path
         id="path1079"
         d="M 293.77708,323.82517 V 323.82517 C 264.61485,352.63577 225.05854,368.45647 184.07173,367.70207 143.08491,366.94777 104.13753,349.68237 76.055128,319.81817"
         inkscape:connector-curvature="0"
         style="fill:#000000;fill-opacity:0;fill-rule:evenodd;stroke:none;stroke-linecap:square;stroke-miterlimit:10" />
      <path
         id="path1094"
         d="M 137.93393,179.18228 H 343.41342 V 240.51285 H 137.93393 Z"
         inkscape:connector-curvature="0"
         style="fill:#000000;fill-opacity:0;fill-rule:evenodd;stroke:none;stroke-width:2.0640018;stroke-linecap:square;stroke-miterlimit:10" />
      <path
         style="fill:#ffffff;fill-opacity:1;stroke-width:4.51729155"
         inkscape:connector-curvature="0"
         class="fb877d48-bdbd-4dd7-bff9-d5d084133d30"
         d="M 190.82909,193.20002 H 149.63111 A 23.173837,23.173837 0 0 1 149.63111,146.85243 24.980622,24.980622 0 0 1 153.60657,147.21375 3.3879673,3.3879673 0 0 0 157.17511,145.54171 31.937253,31.937253 0 0 1 216.80305,157.82917 3.4521873,3.4521873 0 1 0 223.66948,157.10704 38.713189,38.713189 0 0 0 152.47655,140.21127 H 149.63111 A 29.950392,29.950392 0 0 0 149.63111,200.11205 H 190.82909 A 3.388432,3.388432 0 1 0 190.82909,193.33519 Z M 234.73713,187.68894 A 3.2072766,3.2072766 0 0 0 236.0018,187.95952 3.3879673,3.3879673 0 0 0 238.39582,186.96613 3.2072766,3.2072766 0 0 0 239.38962,184.57219 4.5172929,4.5172929 0 0 0 239.16315,183.26199 3.6590044,3.6590044 0 0 0 238.39582,182.17771 3.4783138,3.4783138 0 0 0 233.60726,182.17771 3.3879673,3.3879673 0 0 0 233.60726,186.96613 3.0265843,3.0265843 0 0 0 234.73713,187.68894 Z M 249.55358,167.6319 H 204.38169 A 3.4331397,3.4331397 0 0 0 200.99256,171.02103 V 216.19292 A 3.3879673,3.3879673 0 0 0 204.38169,219.58136 H 249.55358 A 3.3427957,3.3427957 0 0 0 252.94202,216.19292 V 171.02103 A 3.3879673,3.3879673 0 0 0 249.55358,167.6319 Z M 246.16614,212.80548 H 207.76852 V 174.40785 H 246.25599 Z M 225.70296,187.68894 A 3.0265843,3.0265843 0 0 0 226.96732,187.95952 3.2524487,3.2524487 0 0 0 228.27691,187.68894 2.8458931,2.8458931 0 0 0 229.36107,186.96613 3.2072766,3.2072766 0 0 0 230.35455,184.57219 2.9814111,2.9814111 0 0 0 230.12889,183.30777 3.3427957,3.3427957 0 0 0 229.36107,182.17771 3.0265843,3.0265843 0 0 0 228.27691,181.45547 3.2072766,3.2072766 0 0 0 225.70296,181.45547 3.1169291,3.1169291 0 0 0 223.85101,183.30777 3.0265843,3.0265843 0 0 0 223.57931,184.57219 3.3879673,3.3879673 0 0 0 224.57279,186.96613 3.0265843,3.0265843 0 0 0 225.70296,187.68894 Z"
         id="path5303" />
      <text
         id="text5409"
         y="283.06863"
         x="186.21033"
         style="font-style:normal;font-weight:normal;font-size:13.33333302px;line-height:1.25;font-family:sans-serif;letter-spacing:0px;word-spacing:0px;fill:#000000;fill-opacity:1;stroke:none"
         xml:space="preserve"><tspan
           style="font-style:normal;font-variant:normal;font-weight:normal;font-stretch:normal;font-size:53.33333206px;font-family:'Red Hat Display';-inkscape-font-specification:'Red Hat Display';text-align:center;text-anchor:middle;fill:#ffffff;fill-opacity:1"
           y="283.06863"
           x="186.21033"
           id="tspan5407"
           sodipodi:role="line">Cloud Native</tspan><tspan
           style="font-style:normal;font-variant:normal;font-weight:normal;font-stretch:normal;font-size:53.33333206px;font-family:'Red Hat Display';-inkscape-font-specification:'Red Hat Display';text-align:center;text-anchor:middle;fill:#ffffff;fill-opacity:1"
           id="tspan5411"
           y="349.73529"
           x="186.21033"
           sodipodi:role="line">AppDev</tspan></text>
    </g>
  </g>
</svg>
